HIERARCHY
ROOT Hips
{
	OFFSET 0.000000 0.000000 0.000000
	CHANNELS 6 Xposition Yposition Zposition Zrotation Yrotation Xrotation 
	JOINT LeftUpLeg_virtual
	{
		OFFSET 0.000000 0.000000 0.000000
		CHANNELS 3 Zrotation Yrotation Xrotation
		JOINT LeftUpLeg
		{
			OFFSET 10.205400 -3.823500 0.155100
			CHANNELS 3 Zrotation Yrotation Xrotation
			JOINT LeftLeg
			{
				OFFSET 0.708757 -12.982077 0.567790
				CHANNELS 3 Zrotation Yrotation Xrotation
				JOINT LeftFoot
				{
					OFFSET -0.708756 -10.717838 -2.184338
					CHANNELS 3 Zrotation Yrotation Xrotation
					JOINT LeftToeBase
					{
						OFFSET 0.108149 -7.191104 7.560241
						CHANNELS 3 Zrotation Yrotation Xrotation
						End Site
						{
							OFFSET 0.000000 0.000000 0.000000
						}
					}
				}
			}
		}
	}
	JOINT RightUpLeg_virtual
	{
		OFFSET 0.000000 0.000000 0.000000
		CHANNELS 3 Zrotation Yrotation Xrotation
		JOINT RightUpLeg
		{
			OFFSET -10.205400 -3.823500 0.005500
			CHANNELS 3 Zrotation Yrotation Xrotation
			JOINT RightLeg
			{
				OFFSET -0.708756 -12.982134 0.610632
				CHANNELS 3 Zrotation Yrotation Xrotation
				JOINT RightFoot
				{
					OFFSET 0.708754 -10.717769 -1.945823
					CHANNELS 3 Zrotation Yrotation Xrotation
					JOINT RightToeBase
					{
						OFFSET -0.108140 -7.191069 7.372968
						CHANNELS 3 Zrotation Yrotation Xrotation
						End Site
						{
							OFFSET 0.000000 0.000000 0.000000
						}
					}
				}
			}
		}
	}
	JOINT Spine_virtual
	{
		OFFSET 0.000000 0.000000 0.000000
		CHANNELS 3 Zrotation Yrotation Xrotation
		JOINT Spine
		{
			OFFSET 0.000000 6.876099 0.125700
			CHANNELS 3 Zrotation Yrotation Xrotation
			JOINT Spine1
			{
				OFFSET 0.000000 8.022060 0.146608
				CHANNELS 3 Zrotation Yrotation Xrotation
				JOINT Spine2
				{
					OFFSET 0.000000 9.168068 0.167552
					CHANNELS 3 Zrotation Yrotation Xrotation
					JOINT Neck_virtual
					{
						OFFSET 0.000000 0.000000 0.000000
						CHANNELS 3 Zrotation Yrotation Xrotation
						JOINT Neck
						{
							OFFSET 0.000000 10.314075 0.188496
							CHANNELS 3 Zrotation Yrotation Xrotation
							JOINT Head
							{
								OFFSET 0.000000 7.643700 -2.377400
								CHANNELS 3 Zrotation Yrotation Xrotation
								End Site
								{
									OFFSET 0.000000 0.000000 0.000000
								}
							}
						}
					}
					JOINT LeftShoulder_virtual
					{
						OFFSET 0.000000 0.000000 0.000000
						CHANNELS 3 Zrotation Yrotation Xrotation
						JOINT LeftShoulder
						{
							OFFSET 4.392200 8.824978 0.174984
							CHANNELS 3 Zrotation Yrotation Xrotation
							JOINT LeftArm
							{
								OFFSET 8.771219 -2.981674 -0.026999
								CHANNELS 3 Zrotation Yrotation Xrotation
								JOINT LeftForeArm
								{
									OFFSET 8.512804 0.000000 -0.000000
									CHANNELS 3 Zrotation Yrotation Xrotation
									JOINT LeftHand
									{
										OFFSET 18.484802 0.000000 -0.000000
										CHANNELS 3 Zrotation Yrotation Xrotation
										End Site
										{
											OFFSET 0.000000 0.000000 0.000000
										}
									}
								}
							}
						}
					}
					JOINT RightShoulder_virtual
					{
						OFFSET 0.000000 0.000000 0.000000
						CHANNELS 3 Zrotation Yrotation Xrotation
						JOINT RightShoulder
						{
							OFFSET -4.392200 8.824993 0.141379
							CHANNELS 3 Zrotation Yrotation Xrotation
							JOINT RightArm
							{
								OFFSET -8.771282 -2.981682 -0.094208
								CHANNELS 3 Zrotation Yrotation Xrotation
								JOINT RightForeArm
								{
									OFFSET -8.494598 0.000000 0.000000
									CHANNELS 3 Zrotation Yrotation Xrotation
									JOINT RightHand
									{
										OFFSET -18.483803 0.000000 0.000001
										CHANNELS 3 Zrotation Yrotation Xrotation
										End Site
										{
											OFFSET 0.000000 0.000000 0.000000
										}
									}
								}
							}
						}
					}
				}
			}
		}
	}
}
MOTION
Frames: 4
Frame Time: 0.033333
9.201455 36.168175 -1.485050 -179.972753 -10.136008 -179.993380 0.348956 -1.963833 15.371411 1.701453 -8.381149 -16.002404 3.568359 5.046506 13.733041 -0.203597 1.141837 8.291052 0.000000 0.000000 0.000000 5.644846 -0.993554 15.691132 -4.887893 7.706304 -16.063510 -4.338437 4.559672 16.806270 11.639871 3.600971 2.264286 0.000000 0.000000 0.000000 2.847736 1.179983 3.077214 1.545769 -2.658340 -16.174813 -0.276406 -2.633812 7.411777 -0.018047 0.006333 0.001197 -0.696630 -0.279018 9.270490 -1.153167 4.691376 15.235082 0.000000 0.000000 0.000000 0.944826 0.474638 6.435149 -20.726180 -10.029090 2.408470 -43.729217 4.246033 1.737488 2.264177 -44.023882 1.680986 0.000000 0.000000 0.000000 -3.278296 1.571965 5.721636 27.738296 5.466965 7.000525 41.944216 -6.384889 6.465337 -3.204755 36.842682 -3.355227 0.000000 0.000000 0.000000 
9.229416 36.169426 -1.498511 179.978463 -10.027762 -179.955527 0.287818 -2.148441 15.425222 1.566833 -7.978061 -15.910847 3.567100 5.759511 14.018045 -0.292583 1.148426 8.503210 0.000000 0.000000 0.000000 5.572908 -1.129810 15.582363 -4.811421 7.489787 -16.084447 -4.157841 4.567325 16.645094 11.710826 3.667600 2.673090 0.000000 0.000000 0.000000 2.810434 1.120225 2.968177 1.564306 -2.608516 -16.176301 -0.299641 -2.632714 7.449831 -0.005329 0.002289 0.009972 -0.719062 -0.207288 9.295613 -1.150827 4.681690 15.185886 0.000000 0.000000 0.000000 0.916765 0.520500 6.464769 -20.734194 -9.918592 2.386315 -43.853134 4.408325 1.825866 2.261861 -43.938453 1.699507 0.000000 0.000000 0.000000 -3.296860 1.633477 5.778795 27.792759 5.476934 7.007179 42.028674 -6.606156 6.670562 -3.181165 36.569297 -3.338487 0.000000 0.000000 0.000000 
9.266638 36.166412 -1.522923 -179.963259 -9.855955 -179.937632 0.320207 -2.243583 15.459221 1.637988 -7.904542 -15.848158 3.537031 5.699016 14.130227 -0.273191 1.316888 8.457037 0.000000 0.000000 0.000000 5.594639 -1.168508 15.472491 -4.668069 7.548798 -15.995115 -4.194235 4.660122 16.619954 11.743049 3.628895 2.705819 0.000000 0.000000 0.000000 2.811261 1.092299 2.859075 1.611575 -2.499307 -16.146743 -0.291701 -2.619033 7.479586 -0.014930 0.022564 0.011096 -0.719106 -0.248312 9.315666 -1.187755 4.643931 15.175929 0.000000 0.000000 0.000000 0.918930 0.491397 6.514131 -20.683840 -9.742140 2.321136 -44.117643 4.995370 1.534360 2.203996 -43.710793 1.779552 0.000000 0.000000 0.000000 -3.297361 1.595743 5.810094 27.812735 5.390469 7.008693 42.205016 -7.134688 6.948249 -3.169759 36.104892 -3.321934 0.000000 0.000000 0.000000 
9.292752 36.160130 -1.557773 -179.936525 -9.701469 -179.961920 0.295733 -2.369620 15.484450 1.711799 -7.969968 -15.805252 3.574801 5.894481 14.312913 -0.372382 1.385124 8.351297 0.000000 0.000000 0.000000 5.579521 -1.236557 15.401020 -4.512043 7.513187 -15.989319 -4.172403 5.031378 16.657230 11.632010 3.546383 2.676582 0.000000 0.000000 0.000000 2.773192 1.024178 2.803105 1.638742 -2.390605 -16.076884 -0.291737 -2.612162 7.512556 0.003685 0.030340 0.033327 -0.751744 -0.234365 9.320083 -1.201214 4.619084 15.210959 0.000000 0.000000 0.000000 0.868898 0.500194 6.507747 -20.608431 -9.425040 2.289009 -44.560175 6.047585 1.098077 2.203376 -43.220693 1.979242 0.000000 0.000000 0.000000 -3.355091 1.627001 5.792381 27.846307 5.301458 7.055371 42.446443 -7.951923 7.279435 -3.288324 35.468985 -3.452398 0.000000 0.000000 0.000000 
